<!-- Copyright 2000-2023 JetBrains s.r.o. and contributors. Use of this source code is governed by the Apache 2.0 license. -->
<svg width="16" height="16" viewBox="0 0 16 16" fill="none" xmlns="http://www.w3.org/2000/svg">
    <path fill-rule="evenodd" clip-rule="evenodd"
          d="M11 10.5C11 10.2239 11.2239 10 11.5 10H15.5C15.7761 10 16 10.2239 16 10.5V14.5C16 14.7761 15.7761 15 15.5 15C15.2239 15 15 14.7761 15 14.5V11.7071L10.8536 15.8536C10.6583 16.0488 10.3417 16.0488 10.1464 15.8536C9.95118 15.6583 9.95118 15.3417 10.1464 15.1464L14.2929 11H11.5C11.2239 11 11 10.7761 11 10.5Z"
          fill="#6C707E"/>
    <path d="M6.86482 4H8.08667L7.74137 5.68282H8.83926C9.44133 5.69462 9.88988 5.81797 10.1851 6.05287C10.4861 6.28776 10.5746 6.73427 10.4507 7.39207L9.85747 10.326H8.61791L9.18457 7.52423C9.24354 7.23049 9.22583 7.02203 9.13144 6.89868C9.03706 6.77533 8.83342 6.71366 8.52052 6.71366L7.53772 6.70485L6.8117 10.326H5.58984L6.86482 4Z"
          fill="#3574F0"/>
    <path fill-rule="evenodd" clip-rule="evenodd"
          d="M1.26612 5.6828H3.63899C4.33545 5.68862 4.84013 5.88844 5.15303 6.28192C5.46593 6.6754 5.56917 7.21285 5.46292 7.89426C5.42166 8.20562 5.33011 8.511 5.18845 8.81056C5.05263 9.11012 4.86385 9.38025 4.62179 9.62113C4.3266 9.92651 4.01086 10.1203 3.67441 10.2026C3.33796 10.2849 2.98965 10.326 2.62964 10.326H1.56716L1.23071 12H0L1.26612 5.6828ZM1.7708 9.33038L2.30027 6.69602H2.47912C2.54411 6.69602 2.61193 6.69302 2.68276 6.68721C3.15503 6.68139 3.54745 6.72544 3.86034 6.81936C4.17909 6.91329 4.28534 7.2687 4.17909 7.88544C4.04929 8.61971 3.79536 9.04844 3.41764 9.17179C3.03993 9.28932 2.56766 9.34501 2.001 9.33919H1.87705C1.84163 9.33919 1.80622 9.3362 1.7708 9.33038Z"
          fill="#3574F0"/>
    <path d="M14.1351 5.69092H11.7622L11.091 9.05644C11.221 9.01967 11.3582 9 11.5 9H12.3382L12.7964 6.70913H12.9752C13.0402 6.70913 13.108 6.70612 13.1789 6.70027C13.6511 6.69443 14.0435 6.7387 14.3564 6.83308C14.6752 6.92747 14.7814 7.28464 14.6752 7.90442C14.5847 8.41881 14.4339 8.78398 14.2229 9H15.6027C15.6318 8.94573 15.6591 8.89043 15.6845 8.83409C15.8262 8.53305 15.9177 8.22617 15.959 7.91327C16.0653 7.22851 15.962 6.68841 15.6491 6.29299C15.3362 5.89757 14.8315 5.69676 14.1351 5.69092Z"
          fill="#3574F0"/>
</svg>
